# xmcd CD database file
#
# Track frame offsets:
#	187
#	20017
#	35070
#	57247
#	79702
#	97122
#	114007
#	129985
#	149410
#	168385
#
# Disc length: 2507 seconds
#
# Revision: 12
# Processed by: cddbd v1.5.2PL0 Copyright (c) Steve Scherf et al.
# Submitted via: CDex 1.70beta2
#
DISCID=8209c90a
DTITLE=松任谷由実 - Delight Slight Light KISS
DYEAR=1989
DGENRE=J-Pop
TTITLE0=リフレインが叫んでる
TTITLE1=Nobody Else
TTITLE2=ふってあげる
TTITLE3=誕生日おめでとう
TTITLE4=Home Townへようこそ
TTITLE5=とこしえにGood Night（夜明けの色）
TTITLE6=恋はNo-Return
TTITLE7=幸せはあなたへの復讐
TTITLE8=吹雪の中を
TTITLE9=September Blue Moon
EXTD=YEAR: 1989
EXTT0=
EXTT1=
EXTT2=
EXTT3=
EXTT4=
EXTT5=
EXTT6=
EXTT7=
EXTT8=
EXTT9=
PLAYORDER=
